<svg width="24" height="24" viewBox="0 0 24 24" fill="none" xmlns="http://www.w3.org/2000/svg">
<path d="M16 8C16.7956 8 17.5587 8.31607 18.1213 8.87868C18.6839 9.44129 19 10.2044 19 11V19C19 19.7956 18.6839 20.5587 18.1213 21.1213C17.5587 21.6839 16.7956 22 16 22H7C6.20435 22 5.44129 21.6839 4.87868 21.1213C4.31607 20.5587 4 19.7956 4 19V11C4 10.2044 4.31607 9.44129 4.87868 8.87868C5.44129 8.31607 6.20435 8 7 8V6.5C7 4 9 2 11.5 2C14 2 16 4 16 6.5V8ZM7 9C6.46957 9 5.96086 9.21071 5.58579 9.58579C5.21071 9.96086 5 10.4696 5 11V19C5 19.5304 5.21071 20.0391 5.58579 20.4142C5.96086 20.7893 6.46957 21 7 21H16C16.5304 21 17.0391 20.7893 17.4142 20.4142C17.7893 20.0391 18 19.5304 18 19V11C18 10.4696 17.7893 9.96086 17.4142 9.58579C17.0391 9.21071 16.5304 9 16 9H7ZM15 8V6.5C15 5.57174 14.6313 4.6815 13.9749 4.02513C13.3185 3.36875 12.4283 3 11.5 3C10.5717 3 9.6815 3.36875 9.02513 4.02513C8.36875 4.6815 8 5.57174 8 6.5V8H15ZM11.5 14C11.1022 14 10.7206 14.158 10.4393 14.4393C10.158 14.7206 10 15.1022 10 15.5C10 15.8978 10.158 16.2794 10.4393 16.5607C10.7206 16.842 11.1022 17 11.5 17C11.8978 17 12.2794 16.842 12.5607 16.5607C12.842 16.2794 13 15.8978 13 15.5C13 15.1022 12.842 14.7206 12.5607 14.4393C12.2794 14.158 11.8978 14 11.5 14ZM11.5 13C12.163 13 12.7989 13.2634 13.2678 13.7322C13.7366 14.2011 14 14.837 14 15.5C14 16.163 13.7366 16.7989 13.2678 17.2678C12.7989 17.7366 12.163 18 11.5 18C10.837 18 10.2011 17.7366 9.73223 17.2678C9.26339 16.7989 9 16.163 9 15.5C9 14.837 9.26339 14.2011 9.73223 13.7322C10.2011 13.2634 10.837 13 11.5 13Z" fill="#3E606F"/>
</svg>
